<svg width="140" height="140" viewBox="0 0 140 140" fill="none" xmlns="http://www.w3.org/2000/svg">
<g clip-path="url(#clip0_44005_2678)">
<rect width="140" height="140" rx="14" fill="url(#paint0_linear_44005_2678)"/>
<g opacity="0.35" filter="url(#filter0_f_44005_2678)">
<ellipse cx="146.265" cy="20.3027" rx="30.0824" ry="37.2803" fill="#7C87FB"/>
</g>
<g opacity="0.35" filter="url(#filter1_f_44005_2678)">
<ellipse cx="-6.57203" cy="61.1429" rx="27.9309" ry="34.3072" fill="#FA7185"/>
</g>
<rect x="128.646" y="74" width="29.8562" height="67.2922" transform="rotate(30 128.646 74)" fill="url(#paint1_linear_44005_2678)"/>
<rect x="28.6074" y="-14" width="28.8012" height="71.2147" transform="rotate(30 28.6074 -14)" fill="url(#paint2_linear_44005_2678)"/>
<path d="M9.46655 73.3088V81.8367" stroke="url(#paint3_linear_44005_2678)" stroke-width="0.0782377"/>
<path d="M11.1096 88.6436L11.1096 94.5896" stroke="url(#paint4_linear_44005_2678)" stroke-width="0.0782377"/>
<path opacity="0.7" d="M3.91174 67.0498L3.91174 73.7" stroke="url(#paint5_linear_44005_2678)" stroke-width="0.0782377"/>
<path d="M16.3514 79.333L16.3514 84.9661" stroke="url(#paint6_linear_44005_2678)" stroke-width="0.0782377"/>
<path d="M14.3956 69.9446L14.3956 75.5777" stroke="url(#paint7_linear_44005_2678)" stroke-width="0.0782377"/>
<path d="M6.10239 83.6362L6.10239 87.7828" stroke="url(#paint8_linear_44005_2678)" stroke-width="0.0782377"/>
<path opacity="0.4" d="M13.6914 85.7485L13.6914 89.191" stroke="url(#paint9_linear_44005_2678)" stroke-width="0.0782377"/>
<path opacity="0.2" d="M4.38113 76.5166L4.38113 80.5067" stroke="url(#paint10_linear_44005_2678)" stroke-width="0.0782377"/>
<path opacity="0.7" d="M132.065 2.81665L132.065 9.46686" stroke="url(#paint11_linear_44005_2678)" stroke-width="0.0782377"/>
<path d="M135.899 12.6746L135.899 18.3077" stroke="url(#paint12_linear_44005_2678)" stroke-width="0.0782377"/>
<path d="M132.535 20.6548L132.535 24.8014" stroke="url(#paint13_linear_44005_2678)" stroke-width="0.0782377"/>
<path opacity="0.2" d="M130.813 13.5352L130.813 17.5253" stroke="url(#paint14_linear_44005_2678)" stroke-width="0.0782377"/>
<path d="M53.168 99V42.264H75.152C79.12 42.264 82.064 43.16 83.984 44.952C85.904 46.68 86.864 48.984 86.864 51.864V60.696C86.864 63.512 86.128 66.008 84.656 68.184C83.248 70.36 80.848 71.608 77.456 71.928V72.12C79.632 72.504 81.168 73.24 82.064 74.328C82.96 75.352 83.728 77.048 84.368 79.416L89.552 99H74.768L71.024 80.28C70.704 78.872 70.384 77.752 70.064 76.92C69.744 76.024 69.296 75.576 68.72 75.576H67.088V99H53.168ZM67.088 66.264H70.064C71.344 66.264 72.272 65.848 72.848 65.016C73.488 64.184 73.808 62.808 73.808 60.888V54.36C73.808 52.44 73.552 51.128 73.04 50.424C72.528 49.72 71.696 49.368 70.544 49.368H67.088V66.264Z" fill="url(#paint15_linear_44005_2678)"/>
</g>
<defs>
<filter id="filter0_f_44005_2678" x="77.0642" y="-56.0964" width="138.403" height="152.798" filterUnits="userSpaceOnUse" color-interpolation-filters="sRGB">
<feFlood flood-opacity="0" result="BackgroundImageFix"/>
<feBlend mode="normal" in="SourceGraphic" in2="BackgroundImageFix" result="shape"/>
<feGaussianBlur stdDeviation="19.5594" result="effect1_foregroundBlur_44005_2678"/>
</filter>
<filter id="filter1_f_44005_2678" x="-73.6218" y="-12.2832" width="134.099" height="146.852" filterUnits="userSpaceOnUse" color-interpolation-filters="sRGB">
<feFlood flood-opacity="0" result="BackgroundImageFix"/>
<feBlend mode="normal" in="SourceGraphic" in2="BackgroundImageFix" result="shape"/>
<feGaussianBlur stdDeviation="19.5594" result="effect1_foregroundBlur_44005_2678"/>
</filter>
<linearGradient id="paint0_linear_44005_2678" x1="70" y1="0" x2="70" y2="140" gradientUnits="userSpaceOnUse">
<stop stop-color="#EAF2FF"/>
<stop offset="1" stop-color="#FFF3F6"/>
</linearGradient>
<linearGradient id="paint1_linear_44005_2678" x1="143.574" y1="74" x2="143.574" y2="141.292" gradientUnits="userSpaceOnUse">
<stop stop-color="white" stop-opacity="0"/>
<stop offset="0.5" stop-color="white" stop-opacity="0.5"/>
<stop offset="1" stop-color="white" stop-opacity="0"/>
</linearGradient>
<linearGradient id="paint2_linear_44005_2678" x1="43.008" y1="-14" x2="43.008" y2="57.2147" gradientUnits="userSpaceOnUse">
<stop stop-color="white" stop-opacity="0"/>
<stop offset="0.5" stop-color="white" stop-opacity="0.5"/>
<stop offset="1" stop-color="white" stop-opacity="0"/>
</linearGradient>
<linearGradient id="paint3_linear_44005_2678" x1="9.96655" y1="73.3088" x2="9.96655" y2="81.8367" gradientUnits="userSpaceOnUse">
<stop stop-color="white"/>
<stop offset="0.958275" stop-color="white" stop-opacity="0"/>
</linearGradient>
<linearGradient id="paint4_linear_44005_2678" x1="11.6096" y1="88.6436" x2="11.6096" y2="94.5896" gradientUnits="userSpaceOnUse">
<stop stop-color="white"/>
<stop offset="0.958275" stop-color="white" stop-opacity="0"/>
</linearGradient>
<linearGradient id="paint5_linear_44005_2678" x1="4.41174" y1="67.0498" x2="4.41174" y2="73.7" gradientUnits="userSpaceOnUse">
<stop stop-color="white"/>
<stop offset="0.958275" stop-color="white" stop-opacity="0"/>
</linearGradient>
<linearGradient id="paint6_linear_44005_2678" x1="16.8514" y1="79.333" x2="16.8514" y2="84.9661" gradientUnits="userSpaceOnUse">
<stop stop-color="white"/>
<stop offset="0.958275" stop-color="white" stop-opacity="0"/>
</linearGradient>
<linearGradient id="paint7_linear_44005_2678" x1="14.8956" y1="69.9446" x2="14.8956" y2="75.5777" gradientUnits="userSpaceOnUse">
<stop stop-color="white"/>
<stop offset="0.958275" stop-color="white" stop-opacity="0"/>
</linearGradient>
<linearGradient id="paint8_linear_44005_2678" x1="6.60239" y1="83.6362" x2="6.60239" y2="87.7828" gradientUnits="userSpaceOnUse">
<stop stop-color="white"/>
<stop offset="0.958275" stop-color="white" stop-opacity="0"/>
</linearGradient>
<linearGradient id="paint9_linear_44005_2678" x1="14.1914" y1="85.7485" x2="14.1914" y2="89.191" gradientUnits="userSpaceOnUse">
<stop stop-color="white"/>
<stop offset="0.958275" stop-color="white" stop-opacity="0"/>
</linearGradient>
<linearGradient id="paint10_linear_44005_2678" x1="4.88113" y1="76.5166" x2="4.88113" y2="80.5067" gradientUnits="userSpaceOnUse">
<stop stop-color="white"/>
<stop offset="0.958275" stop-color="white" stop-opacity="0"/>
</linearGradient>
<linearGradient id="paint11_linear_44005_2678" x1="132.565" y1="2.81665" x2="132.565" y2="9.46686" gradientUnits="userSpaceOnUse">
<stop stop-color="white"/>
<stop offset="0.958275" stop-color="white" stop-opacity="0"/>
</linearGradient>
<linearGradient id="paint12_linear_44005_2678" x1="136.399" y1="12.6746" x2="136.399" y2="18.3077" gradientUnits="userSpaceOnUse">
<stop stop-color="white"/>
<stop offset="0.958275" stop-color="white" stop-opacity="0"/>
</linearGradient>
<linearGradient id="paint13_linear_44005_2678" x1="133.035" y1="20.6548" x2="133.035" y2="24.8014" gradientUnits="userSpaceOnUse">
<stop stop-color="white"/>
<stop offset="0.958275" stop-color="white" stop-opacity="0"/>
</linearGradient>
<linearGradient id="paint14_linear_44005_2678" x1="131.313" y1="13.5352" x2="131.313" y2="17.5253" gradientUnits="userSpaceOnUse">
<stop stop-color="white"/>
<stop offset="0.958275" stop-color="white" stop-opacity="0"/>
</linearGradient>
<linearGradient id="paint15_linear_44005_2678" x1="53.2883" y1="111.5" x2="87.7049" y2="110.879" gradientUnits="userSpaceOnUse">
<stop stop-color="#AB8C95"/>
<stop offset="0.485577"/>
<stop offset="1" stop-color="#8E97C5"/>
</linearGradient>
<clipPath id="clip0_44005_2678">
<rect width="140" height="140" rx="14" fill="white"/>
</clipPath>
</defs>
</svg>
